<?xml version="1.0" encoding="UTF-8" standalone="no"?>
<svg
   width="1920"
   zoomAndPan="magnify"
   viewBox="0 0 1440 809.99999"
   height="1080"
   preserveAspectRatio="xMidYMid"
   version="1.2"
   id="svg73"
   xmlns="http://www.w3.org/2000/svg"
   xmlns:svg="http://www.w3.org/2000/svg">
  <defs
     id="defs10" />
  <g
     id="dcf2152c78">
    <path
       style="fill:#064e25;fill-opacity:1;fill-rule:nonzero;stroke:none"
       d="m 790.28906,167.54297 -8.28515,24.7539 -9.42969,-5.70703 -16.9336,-2.82422 -6.19921,2.9375 c 0,0 -3.60547,0.13672 -4.05469,0.15235 -0.44531,0.0156 -8.51953,1.22656 -8.51953,1.22656 l -5.54688,0.20703 -3.1914,10.9336 -2.5625,3.85156 -1.85157,10.88281 -3.17578,15.44141 -2.30469,-1.5586 -14.4375,-0.21093 -6.07812,10.13281 -4.8125,-8.07813 -15.01172,0.11719 -5.83984,-3.53906 -3.53516,6.14844 -3.71484,1.03515 -5.75391,8.7461 -4.94531,4.42187 -5.32813,-1.89453 -1.87109,-9.96875 -4.63672,-9.47656 -0.26953,-7.20313 -5.34766,-2.26953 1.13672,-3.94922 -3.01953,-2.37109 -1.27734,-5.8125 2.60547,-2.65235 -1.63672,-3.46875 2.16015,-2.70312 -8.48047,-7.72266 -0.23046,-4.1914 -2.33204,-7.94922 -3.38671,-2.42578 -0.73047,-1.32813 -1.89063,-4.89453 c 0,0 -3.15625,-4.08203 -3.45703,-4.27344 -0.3125,-0.1875 11.65234,-12.15625 11.65234,-12.15625 l -1.64453,-1.24218 2.08594,-5.88282 -5,-2.41015 -4.72656,-3.03907 2.74219,-4.41015 -3.75782,-4.16406 7.0586,-11.97657 -3.16797,-4.49218 -0.85156,-14.585941 5.08203,-5.910157 -16.83594,-21.949218 7.61328,0.06641 6.80469,2.546875 8.89062,-5.84375 1.27344,-3.351563 2.73438,0.707032 12.67578,-9.394532 2.3789,-2.996093 5.98438,-0.824219 2.8125,-2.507812 7.75,1.113281 2.30859,-2.488281 c 0,0 0.1211,3.300781 0.84766,3.769531 0.71094,0.476562 2.69531,2.511719 2.61719,3.007812 -0.0859,0.507813 -3.53125,4.640625 -3.53125,4.640625 l 2.16406,7.226563 -2.0625,3.6875 c 0,0 16.25781,16.714843 16.95703,16.886719 0.71094,0.175781 6.57031,1.355468 6.57031,1.355468 l 3.45313,-1.421875 5.92578,3.269531 c 0,0 22.65625,8.566407 22.37109,9.082032 -0.27734,0.515625 9.9336,0.429687 9.9336,0.429687 l 12.11328,7.957025 -1.69141,2.86719 2.99219,7.60547 -0.50391,5.42187 -2.21484,2.08204 3.09375,2.49609 3.47656,12.6875 24.28125,0.99609 -1.48437,4.36328 0.73828,7.78516 8.98828,4.66406 5.27734,9.81641"
       id="path70" />
    <path
       style="fill:#0cc0df;fill-opacity:1;fill-rule:nonzero;stroke:none"
       d="m 854.55859,407.50781 -5.98047,5.5 0.26563,4.08985 0.76172,5.55859 -7.25781,10.39844 -14.62891,7.4375 -5.90234,-3.39453 -5.8125,0.32812 -3.15625,1.77344 -8.16797,-4.03906 -5.66016,-4.61329 -4.44531,1.38282 -4.6875,-0.89844 -3.39453,-4.11719 -3.72266,-2.1914 -3.47266,-7.26954 2.41797,-3.72656 1.14063,-5 1.85156,-0.97656 1.05078,-8.96875 0.57031,-2.10156 -0.48437,-6.80078 2.17969,-2.34375 1.05078,-5.57422 1.69922,-5.73828 c 0,0 1.53125,-2.59375 1.3789,-3.07813 -0.16406,-0.48047 -2.74609,-2.91016 -2.74609,-2.91016 l 2.66016,-4.52343 1.85937,-1.6211 3.99219,2.02735 6.46875,-5.33203 10.5664,10.39843 c 0,0 1.77344,5.8125 1.63282,6.21875 -0.0508,0.0117 -0.0625,0.0117 -0.0274,0.0234 0.0156,0 0.0274,0 0.0274,-0.0234 0.3789,-0.0508 3.48437,0.0391 3.48437,0.0391 l 2.31641,-2.97657 17.3789,16.83203 15.28516,12.55079 -0.49219,3.66015"
       id="path68" />
    <path
       style="fill:#ff66c4;fill-opacity:1;fill-rule:nonzero;stroke:none"
       d="m 842.11719,264.83984 -4.46875,27.62891 -1.21094,10.98828 -12.12109,10.35938 -3.34766,4.94531 -7.80078,-0.96094 -15.14453,0.96094 -7.96485,-3.03516 -11.47265,-0.3125 6.85547,-7.8125 c 0,0 0.3125,-6.36719 0.78515,-7.0039 0.48828,-0.63672 5.74219,-5.74219 5.74219,-5.74219 l 0.0508,-3.67188 3.62109,-2.22265 -4.14453,-6.21485 -15.61718,-4.94531 -14.83204,-12.10937 -10.03906,-0.47657 -10.67187,-10.68359 -5.74219,-0.91406 -12.27344,-16.77735 3.98438,-16.2539 2.39453,-11.47266 2.87109,-3.98437 3.82031,-11.47266 h 5.89454 c 0,0 8.61328,-0.96094 9.08593,-0.96094 0.47657,0 4.3086,0 4.3086,0 l 6.6914,-2.87109 17.85157,3.67187 9.77734,6.42969 3.28125,16.67578 -1.16016,20.1875 c 0,0 14.23047,-0.10937 14.65625,0 0.42578,0.10156 2.8711,1.8125 2.8711,1.8125 l 5.53125,-3.08594 11.25781,8.60157 2.125,21.78515 7.75,-0.53515 2.44922,-2.33594 4.35547,1.80859"
       id="path69" />
    <path
       style="fill:#ff3131;fill-opacity:1;fill-rule:nonzero;stroke:none"
       d="m 664.82031,707.28906 -3.47265,3.20703 -4.22266,3.48438 -2.41406,1.07031 -4.49219,4.05859 1.12109,4.23829 -3.10937,2.02734 1.60937,3.37109 0.42969,2.94141 -2.30078,2.94141 -5.40625,-1.33204 -6.62891,-1.33203 -1.23047,-2.67968 1.49219,-1.875 1.87891,2.30468 1.38281,-3.21093 2.9375,-1.17969 4.76953,-3.96485 -0.26562,-2.08593 -5.9961,4.125 -3.32422,-1.28125 -3.2539,2.23828 -2.72656,-1.71094 -1.39844,0.49219 -3.3711,-0.75781 -0.42578,-3.32032 3.26563,-1.01562 3.85156,1.60937 2.46484,-0.7539 6.41016,-0.69141 1.1875,-2.35547 -2.89453,-1.34375 -5.83594,2.08594 -0.52734,-6.19922 -6.64063,5.41016 -3.96093,0.78906 -0.57813,-3.68359 9.25391,-4.50391 0.64062,-2.08594 -6.09765,-5.88281 -2.03907,-2.02734 c 0,0 -0.96875,0.74218 -0.96875,0.95703 0,0.21093 -0.90234,4.22265 -0.90234,4.22265 0,0 -2.30078,-0.21093 -2.30078,-0.36328 0,-0.16015 -1.54688,-6.90234 -1.54688,-6.90234 l -3.96093,0.47656 -1.61329,-1.60937 c 0,0 -3.20312,-1.4961 -3.37109,-1.54688 -0.16016,-0.0508 -0.10937,-1.39453 -0.10937,-1.39453 l 4.71484,1.39453 2.46484,-2.73047 2.35157,-2.08594 -2.03516,-3.63671 -1.76172,0.85937 0.37891,3.37109 c 0,0 -3.00782,1.38282 -3.27344,1.49219 -0.26172,0.10156 -0.42578,-5.07812 -0.42578,-5.07812 l 1.28125,-3.15625 c 0,0 -2.03516,-1.29688 -2.1875,-1.29688 -0.16016,0 1.38281,-2.08594 1.38281,-2.08594 l -3.47266,-3.47265 -0.64062,-3.7461 c 0,0 4.44141,3.15625 4.60547,3.32032 0.14844,0.16015 0.21094,-3.21875 0.21094,-3.21875 l -3.59375,-2.14063 1.50781,-6.95312 h -3.15625 l -2.15235,2.5664 -1.75781,-2.35156 v 5.08203 l 1.92188,3.79688 -0.64063,2.78906 c 0,0 -2.40234,2.02344 -2.5625,2.13672 -0.16797,0 -0.16797,-5.9336 -0.16797,-5.9336 l -1.17968,1.66016 c 0,0 -3.3711,-2.19922 -3.52344,-2.25 -0.16406,-0.0547 0.36719,-4.33984 0.36719,-4.33984 l 2.30078,2.03906 -0.26563,-4.07813 -0.10156,-7.05468 c 0,0 4.01172,-0.58985 4.32812,-0.70313 0.32813,-0.10156 3.26954,-0.95703 3.26954,-0.95703 l -4.33594,-7.63281 8.18359,3.05469 2.49219,-3.44532 -4.25,-2.57812 -1.21094,-5.05469 -4.00781,5.05469 -0.56641,-4.17188 -3.77343,-1.04687 3.05468,-3.28125 -0.23828,-2.81641 c 0,0 -5.54687,1.6836 -5.45703,1.44531 0.0742,-0.23828 2.5625,-4.33593 2.87891,-4.33593 0.32422,0 -4.41407,-3.28516 -4.41407,-3.28516 0,0 -1.51953,2.96875 -1.6875,3.77344 -0.16015,0.80469 -3.28125,-2.56641 -3.28125,-2.56641 l -2.41406,0.88281 -0.71484,3.9336 h -2.81641 l -1.04687,-4.02344 4.98047,-5.01953 2.49218,-2.27344 -2.17578,-4.82031 7.42969,-1.60547 2.39062,4.89063 -1.23437,3.93359 3.9375,-1.71875 0.96875,4.92969 1.92578,-2.80469 3.80859,-6.94141 -2.83984,-3.37109 1.88672,-1.33594 1.88281,-2.03515 -3.17969,-2.01172 -0.0781,-2.08985 c 0,0 5.58594,1.96485 5.73437,2.08985 0.16797,0.125 0.25391,-3.41016 0.25391,-3.41016 l -5.10547,-3.21875 3.8086,-3.60937 0.45312,-4.13672 2.08984,-1.48438 -1.13281,-4.48828 -3.97656,0.67969 -2.52734,-4.32813 2.89453,-2.8164 -4.53907,-3.04297 0.4375,-4.33985 0.96875,-3.66015 2.29297,-1.15625 0.19922,-1.57422 -2.61719,-2.5625 0.0898,-2.84375 4.21094,-0.80469 v -8.07422 l -4.30079,-1.51953 c 0,0 3.13282,-2.93359 3.13282,-3.09375 0,-0.16406 0.89062,-6.0625 0.89062,-6.0625 0,0 -3.69531,3.69922 -3.97265,4.01172 -0.28907,0.32813 -2.85547,-1.68359 -2.85547,-1.68359 l -2.08594,2.85547 -4.33984,2.28515 -1.80079,-0.76562 0.75782,-4.21094 -3.8125,1.97266 -0.55078,-3.97657 -3.25782,-5.65625 2.05078,-4.46484 0.67969,-3.92188 -0.96875,-7.0664 2.30078,-2.30469 1.72266,-5.67187 0.0508,-5.71875 -6.21484,-12.57813 2.57812,-4.39062 -4.92969,-5.9961 v -5.88672 h 2.35157 l 1.92578,-2.46484 3.74609,-19.15234 3.53516,-2.46485 -2.99219,-2.89062 5.55859,-17.33203 -1.07031,-12.21094 5.67188,-2.87891 c 0,0 -0.74219,-12.21094 -0.42969,-12.52734 0.32812,-0.32813 1.07031,-5.9961 1.07031,-5.9961 l -1.8125,-4.27734 0.74219,-5.24219 -2.5625,-10.8164 -2.56641,-12.20313 3.7461,-3.84375 -0.42578,-12.21484 -3.85938,-5.66797 c 0,0 4.07422,-10.0625 3.74609,-10.48828 -0.3125,-0.42969 0.75391,-4.27735 0.75391,-4.27735 l -0.75391,-4.60156 4.28907,-6 -2.46485,-2.99219 3.7461,-18.9375 -1.28125,-2.58203 0.42578,-5.55859 2.88281,-4.17188 -2.88281,-7.07031 -0.75391,-4.8164 1.92578,-4.60157 -0.42968,-9.84765 -2.67579,-3.96094 -0.95703,-4.91797 5.77344,-2.46484 v -32.21875 l -1.92578,-5.2461 -0.52734,-20.12109 -2.79297,-4.91406 -0.52735,-11.13282 4.48828,-0.96875 3.53516,-5.76953 -2.56641,-2.2539 5.98438,-5.78125 1.82812,5.30468 0.72657,1.44922 3.52343,2.72657 2.17579,8.58984 0.0742,4.48828 8.75391,8.58984 -2.41797,2.80469 1.60938,3.77344 -2.89063,2.72656 1.12891,6.26563 3.13672,2.65234 -1.375,4.17578 5.625,2.64063 v 7.70703 l 4.57812,10.3125 1.59375,10.72656 5.625,2.24219 5.45703,-4.52735 3.01563,3.64454 c 0,0 -1.97266,4.21484 -1.97266,4.65234 0,0.44141 -1.92578,4.10156 -1.92578,4.10156 0,0 -1.00391,5.21875 -1.08203,5.4961 -0.0859,0.27734 -3.40625,3.92187 -3.40625,3.92187 l -2.20313,0.31641 -8.82812,6.47656 -3.41797,5.19531 c 0,0 3.84766,3.69531 4.38672,3.63281 0.53125,-0.0508 -3.10547,3.4336 -3.10547,3.4336 l 0.47656,6.14844 2.99219,7.59375 -2.30078,1.44921 -1.54297,3.20704 7.42969,7.60937 -4.91797,4.38672 -4.27344,-1.44531 0.36328,1.70703 -0.57812,2.1914 -2.62891,2.03516 -1.17969,0.64453 0.375,3.05469 -4.17187,8.5625 -2.94531,9.73437 -2.02735,5.78516 -1.23047,3.04688 2.35157,4.28515 0.0508,5.45703 c 0,0 2.14062,3.90235 2.30078,4.0625 0.16406,0.16407 -5.03125,3.53516 -5.03125,3.53516 l -1.33203,2.08984 -1.5586,4.86328 2.08594,2.9961 c 0,0 -2.82812,2.36328 -2.99219,2.36328 -0.16406,0 -0.80468,6.83984 -0.80468,6.83984 l 5.08203,4.98047 -0.36719,3.3711 2.35547,3.74609 0.47656,4.125 3.20703,3.84766 c 0,0 -2.73047,2.35156 -3.09375,2.78125 -0.3789,0.42578 5.5586,3.21875 5.83594,3.37109 0.26172,0.16016 -0.54297,5.35547 -0.54297,5.35547 l 1.1211,9.68359 -1.28516,1.1211 -1.65625,3.0039 -2.73047,1.38281 1.39453,7.01954 -3.53515,3.15625 4.0625,6.78906 c 0,0 -0.79297,6.16406 -0.95313,6.26172 -0.16797,0.11328 -5.57422,6.21484 -5.57422,6.21484 l -3.53125,5.98438 3.38281,4.55078 -3.86328,2.84375 2.41797,7.38281 2.13672,4.0625 0.375,3.96094 3.47266,5.99609 -6.36328,4.39063 0.3789,3.79687 -1.13672,6.79297 -2.18359,2.36328 1.97266,1.64844 -2.02344,4.8164 3.20312,3.53516 -3.74609,2.84375 0.37891,4.00781 2.02343,4.65235 0.375,10.27734 1.98828,2.94141 0.31641,2.79297 -3.53516,2.82812 2.03907,2.67969 -2.08985,1.97265 1.1836,3.48438 -0.0508,3.04297 4.22656,2.41406 0.47656,2.35156 -2.1875,2.08985 3.68359,2.99218 c 0,0 2.35547,4.07422 2.41407,4.28907 0,0.25 -3.26953,2.99218 -3.26953,2.99218 l 1.44921,3.42188 3.3711,-0.48047 3.63281,1.77344 0.375,5.45703 -8.5,-0.64063 -2.30078,2.19141 7.05469,1.17969 4.33593,5.17969 -4.97656,4.60546 -0.61719,2.94141 c 0,0 3.5586,2.03906 3.77344,2.03906 0.21485,0 -2.66797,1.92188 -2.66797,1.92188 l 1.07032,4.5039 1.16796,5.34375 -2.77734,2.41407 -0.90234,3.32031 3.03906,1.71094 -3.68359,4.98047 0.21484,1.86328 -3.26953,5.73437 5.1914,6.04688 -3.21875,2.9414 1.13282,4.17578 -4.76563,3.58594 -0.16406,5.24219 -2.88281,0.53125 0.53125,6.375 0.0508,5.12891 4.38672,5.35937 0.32812,1.875 2.51563,2.51172 2.30078,-2.62891 4.8164,0.96875 1.23438,4.60547 -0.96875,1.92188 3.32031,2.67968 -2.78125,2.99219 7.21875,7.1211 20.38672,-1.71094 5.45703,2.77734"
       id="path11" />
    <path
       style="fill:#192d52;fill-opacity:1;fill-rule:nonzero;stroke:none"
       d="m 848.41406,299.01953 v 16.68359 l -13.18359,6.9961 -4.29688,0.21094 -39.41406,41.60546 -1.83203,1.59375 -2.61328,4.44532 c 0,0 2.53906,2.39062 2.70312,2.86328 0.14844,0.47656 -1.35937,3.02734 -1.35937,3.02734 l -1.66797,5.64063 -1.03516,5.47656 -2.14062,2.30469 0.47656,6.68359 -0.5625,2.06641 -1.03125,8.8164 -1.82031,0.95703 -1.11719,4.91797 -2.37891,3.66016 3.41016,7.14453 3.66016,2.15234 -4.60547,1.34766 -1.51953,2.15234 c 0,0 3.66015,5.31641 4.61718,5.47657 0.94922,0.16406 8.50391,5.33203 8.50391,5.33203 l 5.40234,5.16406 c 0,0 -4.6914,6.27344 -4.6914,6.51172 0,0.23828 5.0039,7.63281 5.0039,7.63281 l 3.4961,0.8711 v 8.63671 l -13.87891,20.65625 -22.14844,8.80469 -26.90234,1.90235 -3.5,-2.76563 h -4.13281 l -1.48047,3.28906 3.46094,6.67188 1.03125,3.66015 -2.9375,4.76954 -0.23438,1.66796 -1.50781,4.0586 3.57422,4.20703 -7.14453,6.83594 -9.86328,1.5039 -6.03907,-2.9375 c 0,0 -4.20703,-0.55859 -4.1289,-0.87109 0.0742,-0.32422 -4.84375,-2.15234 -4.84375,-2.15234 l -3.33985,2.625 0.23828,7 2.86329,1.97656 -1.19532,6.28515 2.53907,5.48047 h 3.42578 l 1.57812,4.60547 -5.07812,1.01172 0.15234,4.34375 h 3.73438 l 4.05468,2.91016 -6.27343,2.77734 -1.99219,3.26172 -4.36719,6.27344 1.26953,2.86718 -0.94922,2.22657 0.94922,4.60547 -4.60547,3.89843 3.17188,4.13282 -3.25,0.70703 -3.02344,-0.70703 -10.73047,6.74609 -5.48047,8.56641 -0.32031,3.375 1.28125,2.1289 0.38281,2.85938 9.53907,9.30078 3.33593,-0.5586 1.82813,1.10938 2.86719,-1.74609 3.73437,2.86328 0.55859,3.41406 -2.39062,4.29687 -2.69922,0.46875 c 0,0 1.66406,1.1211 2.38672,1.03516 0.71094,-0.0742 1.50781,1.90625 1.50781,1.90625 l -13.90625,13.35547 -5.32812,6.35156 2.0664,9.13672 -4.91797,4.45703 -3.42187,-4.05859 -2.86328,-1.58203 -0.54688,3.64843 -2.78906,0.39844 0.39844,1.90625 h 3.33594 l 3.73437,2.15235 -6.51172,7.30859 -1.43359,5.71484 4.04687,4.69141 -2.375,3.55078 3.57032,2.69922 7.16015,8.61719 -10.02344,-2.04297 -5.40234,-2.75391 -20.17969,1.69531 -7.14843,-7.04687 2.7539,-2.96094 -3.28906,-2.65234 0.95703,-1.90235 -1.21484,-4.55859 -4.76953,-0.96094 -2.27735,2.60157 -2.49219,-2.48829 -0.32421,-1.85546 -4.34375,-5.30079 -0.0508,-5.08203 -0.51953,-6.3125 2.84766,-0.52343 0.16406,-5.19141 4.71875,-3.54688 -1.12109,-4.13281 3.1875,-2.91406 -5.14453,-5.98828 3.23828,-5.67578 -0.21094,-1.84375 3.64844,-4.92969 -3.01563,-1.69141 0.89844,-3.28906 2.75,-2.39062 -1.15625,-5.28907 -1.05859,-4.45703 c 0,0 2.84765,-1.90625 2.64062,-1.90625 -0.21484,0 -3.73828,-2.01562 -3.73828,-2.01562 l 0.61328,-2.91407 4.92969,-4.55468 -4.29688,-5.12891 -6.98437,-1.17187 2.27734,-2.16797 8.41797,0.63672 -0.375,-5.40235 -3.59765,-1.7539 -3.33594,0.46875 -1.4336,-3.38672 c 0,0 3.23829,-2.71094 3.23829,-2.96094 -0.0625,-0.21094 -2.39063,-4.24609 -2.39063,-4.24609 l -3.64844,-2.96094 2.16797,-2.06641 -0.47265,-2.32812 -4.1836,-2.39063 0.0508,-3.01172 -1.17187,-3.44922 2.0664,-1.95703 -2.01562,-2.64843 3.49609,-2.80469 -0.30859,-2.76172 -1.96875,-2.91406 -0.37109,-10.17188 -2.00782,-4.60547 -0.37109,-3.97265 3.71094,-2.8125 -3.17578,-3.5 2.0039,-4.76563 -1.95312,-1.63281 2.16406,-2.33984 1.12109,-6.72266 -0.375,-3.75781 6.30078,-4.34766 -3.4375,-5.9375 -0.37109,-3.92187 -2.11719,-4.01954 -2.39062,-7.30859 3.82031,-2.8125 -3.34766,-4.50781 3.5,-5.92578 c 0,0 5.35157,-6.03907 5.51563,-6.15235 0.16016,-0.0976 0.94531,-6.19922 0.94531,-6.19922 l -4.02344,-6.72265 3.5,-3.125 -1.38281,-6.94531 2.70313,-1.3711 1.64453,-2.97265 1.26562,-1.10938 -1.10547,-9.58594 c 0,0 0.79688,-5.14062 0.53516,-5.30468 -0.27344,-0.14844 -6.14844,-2.91407 -5.77734,-3.33594 0.36328,-0.42188 3.0625,-2.75 3.0625,-2.75 l -3.17188,-3.8125 -0.47656,-4.08203 -2.32813,-3.71094 0.36329,-3.33594 -5.03125,-4.92969 c 0,0 0.63671,-6.77343 0.80078,-6.77343 0.16015,0 2.96093,-2.33985 2.96093,-2.33985 l -2.0664,-2.96484 1.54297,-4.81641 1.32031,-2.0664 c 0,0 5.14062,-3.33594 4.98047,-3.4961 -0.16406,-0.16406 -2.28125,-4.02343 -2.28125,-4.02343 l -0.0469,-5.40235 -2.32812,-4.24609 1.21875,-3.01172 2.0039,-5.72656 2.91407,-9.63672 4.13281,-8.48047 -0.37109,-3.02344 1.16796,-0.63281 2.60157,-2.01953 0.57422,-2.16406 -0.36329,-1.69532 4.23438,1.4336 4.86719,-4.34766 -7.35547,-7.53125 1.52734,-3.17578 2.28125,-1.42969 -2.96484,-7.51953 -0.47266,-6.08594 c 0,0 3.59766,-3.44922 3.07422,-3.40234 -0.53516,0.0625 -4.34375,-3.59766 -4.34375,-3.59766 L 639,277.98047 l 8.73828,-6.41406 2.17969,-0.3086 c 0,0 3.28515,-3.60937 3.37109,-3.88281 0.0781,-0.27344 1.07031,-5.44141 1.07031,-5.44141 0,0 1.91016,-3.62109 1.91016,-4.05859 0,-0.43359 1.95313,-4.60547 1.95313,-4.60547 l -2.98829,-3.61328 6.4336,-9.02344 3.97265,-0.94531 3.98438,-6.36328 6.03906,3.97265 15.88672,0.47266 4.76563,8.73828 6.83593,-10.48047 15.26172,0.79297 2.37891,1.7461 12.23828,16.73437 5.72656,0.90625 10.64453,10.65625 10.00782,0.47266 14.79296,12.07422 15.57422,4.93359 4.13282,6.19922 -3.60938,2.21484 -0.0508,3.66016 c 0,0 -5.24219,5.08984 -5.72656,5.72656 -0.47266,0.63672 -0.78516,6.98828 -0.78516,6.98828 l -6.83594,7.78906 11.44141,0.3125 7.94531,3.02735 15.09766,-0.96094 7.78515,0.96094 3.33204,-4.9336 12.08984,-10.33203 1.20703,-10.95703 h 2.86328 l 3.71094,-2.64844 6.03906,7.62891"
       id="path72" />
    <path
       id="path65"
       style="fill:#418dd1;fill-opacity:1;fill-rule:nonzero;stroke:none"
       d="m 661.5747,273.06592 c 0.0228,-0.11468 -0.10243,0.21181 -0.13623,0.32373 -0.0765,0.25299 -0.13022,0.51274 -0.19482,0.76904 -0.0125,0.066 -0.0184,0.13319 -0.0308,0.19922 0.0226,-0.066 0.0515,-0.12962 0.0718,-0.19629 0.10975,-0.36133 0.21643,-0.72531 0.29003,-1.0957 z m -0.10107,1.79443 c -0.1018,0.0891 -0.20247,0.17939 -0.30469,0.26807 -0.0277,0.0221 -0.0614,0.0702 -0.0923,0.10693 -0.0147,0.0841 -0.0236,0.16928 -0.0381,0.25342 0.14681,-0.20878 0.2865,-0.42088 0.43506,-0.62842 z m 131.28662,13.95703 c -0.85112,1.24397 -1.7871,2.43139 -2.78174,3.58008 0.11695,0.11173 0.21922,0.23905 0.33545,0.35156 l 3.59619,-2.20605 z m -105.85693,23.15918 c -0.0766,0.18617 -0.15802,0.3704 -0.23438,0.55664 -0.0375,0.0915 -0.0626,0.18671 -0.0996,0.27832 0.18834,-0.19525 0.35472,-0.39814 0.54785,-0.59179 -0.0711,-0.08 -0.14138,-0.16336 -0.21386,-0.24317 z m -29.73926,79.27588 c 0.008,0.14055 0.011,0.28132 0.019,0.42187 0.063,-0.10507 0.12968,-0.19976 0.19336,-0.30322 -0.0696,-0.0448 -0.14308,-0.0727 -0.2124,-0.11865 z m 120.37939,26.56055 c -2.86864,0.68425 -5.73361,1.38402 -8.61328,2.02148 -3.71183,0.82707 -7.43149,1.75186 -10.89404,3.35596 -4.71205,2.29883 -9.35955,4.72447 -13.92481,7.30371 -4.16909,2.3569 -8.37004,4.68664 -11.99707,7.85596 -1.7521,1.46461 -0.48138,0.36095 -2.26025,2.03027 -0.16713,0.15684 -0.33156,0.31952 -0.51269,0.45996 -0.0678,0.0525 -0.17442,0.0492 -0.22852,0.11572 -0.53477,0.65756 -1.13411,1.81977 -1.51465,2.49756 -2.82461,5.49072 -5.18122,11.21133 -7.93945,16.73584 -2.73092,5.56568 -5.64078,11.03627 -8.50781,16.53076 -0.10592,1.93969 -0.22358,3.87905 -0.36329,5.8169 0.79271,0.15545 1.55575,0.29242 2.47999,0.53174 4.60068,1.19126 8.88433,3.47736 12.61523,6.41162 0.96093,0.75576 1.86896,1.57634 2.80371,2.36425 2.6316,2.35409 4.95277,5.01264 7.25244,7.68457 l 1.54981,1.22461 26.90185,-1.90283 22.14844,-8.80371 13.87939,-20.65723 v -8.63671 l -3.49658,-0.87012 c 0,0 -5.0039,-7.39502 -5.0039,-7.6333 0,-0.23828 4.69189,-6.51123 4.69189,-6.51123 l -5.40234,-5.16504 c 0,0 -7.55567,-5.16797 -8.50489,-5.33203 -0.95703,-0.16016 -4.61718,-5.47559 -4.61718,-5.47559 l 1.5205,-2.15332 4.60547,-1.34766 -3.66064,-2.15185 z m -109.6875,218.354 c -0.007,-0.0436 -0.0789,0.0565 -0.0879,0.0996 -0.0821,0.3738 0.0946,0.49463 -0.10693,0.30908 0.036,0.2538 0.14327,0.46939 0.22559,0.69873 -0.002,-0.37024 0.0261,-0.74322 -0.0308,-1.10742 z m 4.16895,4.07812 c -0.39063,0.0574 -0.75422,0.22482 -1.10742,0.42334 0.017,0.0111 0.0357,0.0183 0.0527,0.0293 0.28708,-0.1008 0.71733,-0.24983 0.76319,-0.26807 0.10689,-0.0425 0.40531,-0.20127 0.2915,-0.18457 z m -15.32959,14.08155 c -0.2583,-0.0339 -1.04122,0.01 -0.78076,0.0147 0.28404,0.005 0.56839,-0.002 0.85254,-0.003 -0.024,-0.003 -0.0478,-0.009 -0.0718,-0.0117 z m 17.14746,52.56884 c -0.50577,0.51999 -1.04124,1.00888 -1.57617,1.49854 l 3.39697,0.69141 z" />
  </g>
</svg>
